:SAMPLES-PER-SECOND 24
:FULLY-SPECIFIED
:DEGREES
19
root  -1.88396 40.1919 44.289 -45.0082 24.1069 -52.9187
RightUpLeg  -72.7614 -35.3478 -8.72388
RightLeg  88.5071 0.362464 -6.91676
RightFoot  -9.57369 -0.109911 2.96721
RightToes  -2.08645e-008 3.77894e-005 6.81332e-007
Spine  24.8911 -1.04344 -5.06345
Spine1  5.88841 -7.80386 24.6996
HEad  -13.8226 -6.33512 15.2566
LeftShoulder1  6.2347 -12.202 -33.6941
LeftArm  6.44053 -26.1385 -33.8035
LeftForeArm  84.7577 -80.0151 -72.4886
LeftHand  -0.545955 -4.66012 6.59662
RightShoulder  4.52294 7.11794 36.6473
RightArm  -17.4781 -22.0618 15.2028
RightForeArm  33.0158 -5.03488 6.50894
RightHand  0.102373 10.2375 0.34479
LeftUpLeg  -11.9967 9.03657 39.5757
LeftLeg  35.8857 -0.994981 -0.413968
LeftFoot  -0.989872 -0.538237 6.00873
LeftToes  1.24767e-006 1.47042e-008 1.32732e-009
20
root  -2.15795 40.1402 44.9517 -48.7937 22.0629 -56.733
RightUpLeg  -76.2083 -35.499 -13.1199
RightLeg  81.8116 -0.623252 -8.43195
RightFoot  -9.5353 -0.0935963 1.8088
RightToes  -2.08645e-008 3.77894e-005 6.81332e-007
Spine  26.4208 -0.463712 -3.57819
Spine1  6.08381 -7.38384 25.8076
HEad  -13.974 -6.99826 16.9369
LeftShoulder1  6.13643 -12.0743 -33.3912
LeftArm  7.94467 -28.8372 -33.6414
LeftForeArm  93.4399 -80.3781 -80.2417
LeftHand  -0.518982 -4.68798 6.27062
RightShoulder  4.58515 7.18899 36.9377
RightArm  -19.0433 -23.0979 14.4587
RightForeArm  35.5851 -6.77256 5.42628
RightHand  0.162223 10.4409 0.77239
LeftUpLeg  -11.6037 3.77955 44.0407
LeftLeg  36.9397 3.31154 3.04344
LeftFoot  -1.14348 -0.47843 5.42768
LeftToes  1.24767e-006 1.47042e-008 1.32732e-009
21
root  -2.40857 39.9333 45.6483 -51.8456 19.7596 -59.1565
RightUpLeg  -77.4587 -34.9126 -16.4737
RightLeg  72.0209 -3.57284 -13.1749
RightFoot  -10.9655 -0.0769895 0.637659
RightToes  -2.08645e-008 3.77894e-005 6.81332e-007
Spine  28.1822 -0.0698992 -1.71393
Spine1  6.1683 -6.60248 25.4022
HEad  -14.8617 -7.05632 18.6481
LeftShoulder1  5.98661 -11.9166 -32.824
LeftArm  7.78879 -29.9157 -32.8964
LeftForeArm  104.969 -80.5089 -91.8214
LeftHand  -0.468269 -4.73596 5.66235
RightShoulder  4.64442 7.25461 37.2181
RightArm  -20.9483 -21.8317 14.2489
RightForeArm  36.6057 -6.47274 4.66853
RightHand  0.123133 9.9132 0.520217
LeftUpLeg  -11.3827 -2.07378 47.1919
LeftLeg  39.7847 8.82167 8.1802
LeftFoot  -1.27349 -0.425475 4.91501
LeftToes  1.24767e-006 1.47042e-008 1.32732e-009
22
root  -2.58112 39.7109 46.2435 -53.939 17.9613 -60.5709
RightUpLeg  -76.4915 -34.6286 -18.0506
RightLeg  57.436 -10.2951 -17.2225
RightFoot  -11.7578 -0.0824469 -0.794623
RightToes  -2.08645e-008 3.77894e-005 6.81332e-007
Spine  29.016 0.299365 -0.252993
Spine1  6.9532 -6.0284 25.1476
HEad  -16.3815 -7.07831 20.077
LeftShoulder1  6.07349 -12.0363 -33.0836
LeftArm  6.50571 -29.713 -31.4331
LeftForeArm  114.006 -80.3 -101.488
LeftHand  -0.440018 -4.56866 5.41921
RightShoulder  4.65305 7.27261 37.2258
RightArm  -21.8662 -18.9912 14.3183
RightForeArm  36.0143 -6.43098 4.35515
RightHand  0.14957 9.56778 0.75396
LeftUpLeg  -11.4627 -5.23721 49.1627
LeftLeg  42.9164 13.2296 13.2177
LeftFoot  -1.04234 -0.446321 5.01876
LeftToes  1.24767e-006 1.47042e-008 1.32732e-009
23
root  -2.59631 39.537 46.7453 -55.5884 17.704 -60.9687
RightUpLeg  -70.3758 -33.7837 -21.8226
RightLeg  36.3579 -17.9112 -13.9694
RightFoot  -11.5872 -0.0793456 -0.408954
RightToes  -2.08645e-008 3.77894e-005 6.81332e-007
Spine  29.0094 0.469345 -0.246156
Spine1  8.254 -5.84111 25.2202
HEad  -17.6588 -7.56889 21.3301
LeftShoulder1  6.14212 -12.1291 -33.289
LeftArm  5.02091 -28.4486 -30.5288
LeftForeArm  115.24 -80.2671 -102.613
LeftHand  -0.478355 -4.40624 5.95281
RightShoulder  4.66112 7.28682 37.2432
RightArm  -21.4753 -14.8277 14.775
RightForeArm  34.5647 -6.56753 4.92928
RightHand  0.0626657 9.8163 0.0708419
LeftUpLeg  -10.7966 -7.42067 49.8888
LeftLeg  44.7574 13.6397 14.4382
LeftFoot  -2.13333 -0.293534 3.7808
LeftToes  1.24767e-006 1.47042e-008 1.32732e-009
24
root  -2.49054 39.5488 47.4285 -57.5455 18.6743 -61.7813
RightUpLeg  -59.4396 -29.5765 -31.7083
RightLeg  18.4111 -22.186 -8.2375
RightFoot  -10.1408 -0.102955 2.82831
RightToes  -2.08645e-008 3.77894e-005 6.81332e-007
Spine  27.1506 0.329172 -1.43644
Spine1  10.0793 -5.89957 26.0276
HEad  -17.9253 -9.13217 22.2227
LeftShoulder1  6.24299 -12.2715 -33.5715
LeftArm  3.96302 -26.9388 -30.1922
LeftForeArm  102.734 -80.4768 -90.3662
LeftHand  -0.479629 -4.42166 5.95971
RightShoulder  4.67815 7.29467 37.3659
RightArm  -20.4121 -10.6805 15.5425
RightForeArm  31.4932 -6.61988 5.86043
RightHand  -0.0826857 9.5724 -1.04437
LeftUpLeg  -9.56536 -8.51249 50.7728
LeftLeg  44.4607 11.7833 12.5
LeftFoot  -4.03611 -0.117673 2.23088
LeftToes  1.24767e-006 1.47042e-008 1.32732e-009
25
root  -2.5215 39.5147 47.7703 -59.9182 20.4922 -63.598
RightUpLeg  -53.5851 -25.1035 -38.53
RightLeg  18.5332 -21.0294 -7.90735
RightFoot  -7.45616 -0.242289 5.57597
RightToes  -2.08645e-008 3.77894e-005 6.81332e-007
Spine  26.0797 0.35693 -2.26439
Spine1  11.2906 -6.38553 26.9904
HEad  -17.7416 -11.4551 23.2962
LeftShoulder1  6.25764 -12.2985 -33.5965
LeftArm  4.36913 -25.7409 -30.2514
LeftForeArm  79.7274 -79.6996 -68.0609
LeftHand  -0.471433 -4.53541 5.80349
RightShoulder  4.75424 7.34499 37.8489
RightArm  -19.7306 -8.2544 16.8705
RightForeArm  28.3138 -3.51849 6.65897
RightHand  -0.19568 9.31641 -1.93761
LeftUpLeg  -10.1183 -9.98223 50.8523
LeftLeg  44.3923 10.9856 11.6834
LeftFoot  -5.24503 -0.0562318 1.65365
LeftToes  1.24767e-006 1.47042e-008 1.32732e-009
26
root  -2.59912 39.4193 47.801 -61.4798 22.3134 -64.9731
RightUpLeg  -56.3201 -26.2197 -34.0597
RightLeg  30.922 -13.7476 -8.95746
RightFoot  -2.69196 -0.451295 5.71933
RightToes  -2.08645e-008 3.77894e-005 6.81332e-007
Spine  25.2725 0.83801 -1.93521
Spine1  11.8769 -6.257 26.7977
HEad  -18.4869 -13.993 23.9903
LeftShoulder1  6.34441 -12.3646 -33.975
LeftArm  5.93932 -24.3283 -29.7969
LeftForeArm  63.5367 -77.8741 -51.531
LeftHand  -0.532206 -4.80899 6.35285
RightShoulder  4.73276 7.32108 37.7513
RightArm  -19.4228 -7.52077 19.3266
RightForeArm  27.1885 0.156523 7.1356
RightHand  -0.249941 9.43668 -2.35056
LeftUpLeg  -11.1312 -11.4821 50.1236
LeftLeg  44.4909 10.2892 11.0329
LeftFoot  -6.5286 -0.0126263 1.23429
LeftToes  1.24767e-006 1.47042e-008 1.32732e-009
27
root  -2.60219 39.4337 47.7169 -61.9244 24.7362 -65.4916
RightUpLeg  -60.5576 -28.4055 -26.9654
RightLeg  44.4205 -9.38966 -10.0559
RightFoot  1.87632 -0.439952 3.89621
RightToes  -2.08645e-008 3.77894e-005 6.81332e-007
Spine  24.7353 1.40161 -1.3049
Spine1  11.123 -5.23058 25.3555
HEad  -20.22 -16.4563 23.9135
LeftShoulder1  6.40274 -12.3959 -34.2599
LeftArm  6.9989 -21.4648 -28.763
LeftForeArm  57.0599 -76.4416 -43.9149
LeftHand  -0.544912 -5.25118 6.2529
RightShoulder  4.69152 7.29109 37.4996
RightArm  -18.6409 -7.2024 21.7066
RightForeArm  29.3258 1.8672 7.4863
RightHand  -0.27779 9.68813 -2.53584
LeftUpLeg  -11.4239 -11.2582 48.6149
LeftLeg  42.9336 8.68612 8.95224
LeftFoot  -8.13722 0.0102188 1.40482
LeftToes  1.24767e-006 1.47042e-008 1.32732e-009
